<svg width="316" height="57" viewBox="0 0 316 57" fill="none" xmlns="http://www.w3.org/2000/svg">
<path fill-rule="evenodd" clip-rule="evenodd" d="M105.818 0L73.8182 57H99.6364L104.364 47.7879H107.636L112.545 57H137.818L105.818 0ZM103.091 39.1515L99.0909 46.0606L98.3636 38L101.636 32.4343V26.6768L105.818 19.1919L110 26.6768V32.4343L113.636 38L112.545 46.0606L108.909 39.1515H103.091Z" fill="#CCCCCC"/>
<path d="M205.818 0V57H221.636V0H205.818Z" fill="white"/>
<path fill-rule="evenodd" clip-rule="evenodd" d="M145.636 0H176.545C193.455 -7.4787e-07 205.818 23.4811 183.273 33.8774C186.545 35.1321 190.509 39.9358 199.818 57H183.273L174.364 40.6887C171.636 35.8491 169.636 35.8491 161.818 35.8491V57H145.636V28.5V0ZM172.182 24.3774C183.273 24.3774 183.273 10.7547 172.182 10.7547H161.818V24.3774H172.182Z" fill="#CCCCCC"/>
<path d="M63.0909 57V0H50.3636L31.6364 32.4343L14.5455 0H0V57H14.5455V26.6768L27.4545 49.1132H36L49.2727 25.8113V57H63.0909Z" fill="#CCCCCC"/>
<path d="M259.262 51.8917C263.73 55.1116 269.163 57 275.024 57C286.405 57 296.176 49.878 300.39 39.712C285.417 49.4746 266.733 51.8995 259.262 51.8917Z" fill="white"/>
<path d="M275.024 0C259.79 0 247.441 12.7599 247.441 28.5C247.441 32.7461 248.34 36.7753 249.951 40.3957C250.724 42.1322 251.661 43.7747 252.742 45.3019C268.602 43.5731 290.528 37.3907 302.556 30.2348C302.59 29.6609 302.607 29.0825 302.607 28.5C302.607 27.1544 302.517 25.8307 302.342 24.5348C300.474 10.6716 288.955 0 275.024 0Z" fill="white"/>
<path d="M249.951 40.3957C240.926 42.7748 240.248 35.9348 241.038 32.2174C226.25 44.0615 236.194 47.1056 252.742 45.3019C251.661 43.7747 250.724 42.1322 249.951 40.3957Z" fill="white"/>
<path d="M302.342 24.5348C302.517 25.8307 302.607 27.1544 302.607 28.5C302.607 29.0825 302.59 29.6609 302.556 30.2348C325.371 15.7617 314.066 12.8043 305.562 13.1348C308.138 20.867 307.455 20.0739 302.342 24.5348Z" fill="white"/>
</svg>
